<svg id="Capa_1" enable-background="new 0 0 510.09 510.09" height="512" viewBox="0 0 510.09 510.09" width="512" xmlns="http://www.w3.org/2000/svg"><g><path d="m174 272.925v-49.88h-63v-30h63v-34h-63v-30h63v-34h-63v-30h63v-65h-126v272.88c39.531-19.838 86.422-19.862 126 0z"/><circle cx="111" cy="399.045" r="17"/><path d="m126 289.055v65.44c18.59 6.28 32 23.87 32 44.55 0 25.92-21.08 47-47 47s-47-21.08-47-47c0-20.68 13.41-38.27 32-44.55v-65.44c-54.14 7.34-96 53.87-96 109.99 0 61.21 49.79 111 111 111s111-49.79 111-111c0-56.12-41.86-102.65-96-109.99z"/><path d="m422 158.285h88.09l-.09-63.62h-152v288.38l64-.38v-96h88.09v-66.24h-88.09z"/><path d="m271 .045c-25.916 0-47 21.084-47 47s21.084 47 47 47 47-21.084 47-47-21.084-47-47-47zm0 64c-9.374 0-17-7.626-17-17s7.626-17 17-17 17 7.626 17 17-7.626 17-17 17z"/></g></svg>