<svg id="Capa_1" enable-background="new 0 0 510 510" height="512" viewBox="0 0 510 510" width="512" xmlns="http://www.w3.org/2000/svg"><g><path d="m319.23 47c0-25.916-21.084-47-47-47s-47 21.084-47 47 21.084 47 47 47 47-21.084 47-47zm-47 17c-9.374 0-17-7.626-17-17s7.626-17 17-17 17 7.626 17 17-7.626 17-17 17z"/><path d="m465.67 296.42c-40.385 48.022-130.4 15.365-130.4-57.42 0-64.617 72.359-101.692 124.73-66.34l39.57-53.07c-94.202-63.594-224.52 3.031-224.52 119.41 0 131.518 162.488 189.586 234.72 103.35z"/><path d="m174.23 272.88v-49.88h-63v-30h63v-34h-63v-30h63v-34h-63v-30h63v-65h-126v272.88c39.531-19.839 86.422-19.862 126 0z"/><path d="m126.23 289.01v65.44c18.59 6.28 32 23.87 32 44.55 0 25.92-21.08 47-47 47s-47-21.08-47-47c0-20.68 13.41-38.27 32-44.55v-65.44c-54.14 7.34-96 53.87-96 109.99 0 61.21 49.79 111 111 111s111-49.79 111-111c0-56.12-41.86-102.65-96-109.99z"/></g></svg>